<svg width="21" height="21" viewBox="0 0 21 21" fill="none" xmlns="http://www.w3.org/2000/svg">
<path d="M3.53694 5.37005C2.45215 6.80505 1.81152 8.59025 1.81152 10.5207C1.81152 15.2357 5.63819 19.0623 10.3532 19.0623C15.0682 19.0623 18.8949 15.2357 18.8949 10.5207C18.8949 5.80567 15.0682 1.979 10.3532 1.979" stroke="#A6A29F" stroke-width="1.5" stroke-linecap="round" stroke-linejoin="round"/>
<path d="M4.37402 10.5207C4.37402 13.8263 7.04757 16.4998 10.3532 16.4998C13.6588 16.4998 16.3324 13.8263 16.3324 10.5207C16.3324 7.21505 13.6588 4.5415 10.3532 4.5415" stroke="#A6A29F" stroke-width="1.5" stroke-linecap="round" stroke-linejoin="round"/>
<path d="M10.3535 13.9373C12.2412 13.9373 13.7702 12.4084 13.7702 10.5207C13.7702 8.63296 12.2412 7.104 10.3535 7.104" stroke="#A6A29F" stroke-width="1.5" stroke-linecap="round" stroke-linejoin="round"/>
</svg>
