<svg width="21" height="21" viewBox="0 0 21 21" fill="none" xmlns="http://www.w3.org/2000/svg">
<path d="M9.66699 2.41666H8.00033C3.83366 2.41666 2.16699 4.08333 2.16699 8.25V13.25C2.16699 17.4167 3.83366 19.0833 8.00033 19.0833H13.0003C17.167 19.0833 18.8337 17.4167 18.8337 13.25V11.5833" stroke="#A6A29F" stroke-width="1.5" stroke-linecap="round" stroke-linejoin="round"/>
<path d="M13.8666 3.26666L7.2999 9.83333C7.0499 10.0833 6.7999 10.575 6.7499 10.9333L6.39157 13.4417C6.25823 14.35 6.8999 14.9833 7.80823 14.8583L10.3166 14.5C10.6666 14.45 11.1582 14.2 11.4166 13.95L17.9832 7.38333C19.1166 6.25 19.6499 4.93333 17.9832 3.26666C16.3166 1.6 14.9999 2.13333 13.8666 3.26666Z" stroke="#A6A29F" stroke-width="1.5" stroke-miterlimit="10" stroke-linecap="round" stroke-linejoin="round"/>
<path d="M12.9248 4.20834C13.4831 6.2 15.0415 7.75834 17.0415 8.325" stroke="#A6A29F" stroke-width="1.5" stroke-miterlimit="10" stroke-linecap="round" stroke-linejoin="round"/>
</svg>
