<svg width="21" height="21" viewBox="0 0 21 21" fill="none" xmlns="http://www.w3.org/2000/svg">
<path d="M4.89876 2.0437H16.1738C17.1133 2.0437 17.8821 2.81245 17.8821 3.75203V5.6312C17.8821 6.31453 17.455 7.1687 17.0279 7.59579L13.355 10.8416C12.8425 11.2687 12.5008 12.1229 12.5008 12.8062V16.4791C12.5008 16.9916 12.1592 17.675 11.7321 17.9312L10.5363 18.7C9.42585 19.3833 7.88835 18.6145 7.88835 17.2479V12.7208C7.88835 12.1229 7.54668 11.3541 7.20501 10.927L3.95918 7.51037C3.5321 7.08328 3.19043 6.31453 3.19043 5.80203V3.83745C3.19043 2.81245 3.95918 2.0437 4.89876 2.0437Z" stroke="#EA1D2C" stroke-width="1.5" stroke-miterlimit="10" stroke-linecap="round" stroke-linejoin="round"/>
<path d="M9.62217 2.0437L5.41113 8.79162" stroke="#EA1D2C" stroke-width="1.5" stroke-miterlimit="10" stroke-linecap="round" stroke-linejoin="round"/>
</svg>
