<svg width="21" height="21" viewBox="0 0 21 21" fill="none" xmlns="http://www.w3.org/2000/svg">
<path d="M4.89876 2.04375H16.1738C17.1133 2.04375 17.8821 2.8125 17.8821 3.75208V5.63125C17.8821 6.31458 17.455 7.16875 17.0279 7.59583L13.355 10.8417C12.8425 11.2687 12.5008 12.1229 12.5008 12.8062V16.4792C12.5008 16.9917 12.1592 17.675 11.7321 17.9312L10.5363 18.7C9.42585 19.3833 7.88835 18.6146 7.88835 17.2479V12.7208C7.88835 12.1229 7.54668 11.3542 7.20501 10.9271L3.95918 7.51041C3.5321 7.08333 3.19043 6.31458 3.19043 5.80208V3.8375C3.19043 2.8125 3.95918 2.04375 4.89876 2.04375Z" stroke="#A6A29F" stroke-width="1.5" stroke-miterlimit="10" stroke-linecap="round" stroke-linejoin="round"/>
<path d="M9.62217 2.04375L5.41113 8.79166" stroke="#A6A29F" stroke-width="1.5" stroke-miterlimit="10" stroke-linecap="round" stroke-linejoin="round"/>
</svg>
