<svg width="21" height="21" viewBox="0 0 21 21" fill="none" xmlns="http://www.w3.org/2000/svg">
<path d="M1.871 4.19984C2.55433 1.24442 7.00454 1.24442 7.67933 4.19984C8.08079 5.9338 6.97891 7.40296 6.02225 8.31692C5.32183 8.98317 4.21995 8.97463 3.51954 8.31692C2.57141 7.40296 1.46954 5.9338 1.871 4.19984Z" stroke="#A6A29F" stroke-width="1.5"/>
<path d="M12.9754 14.4498C13.6588 11.4944 18.1346 11.4944 18.8179 14.4498C19.2194 16.1838 18.1175 17.653 17.1523 18.5669C16.4519 19.2332 15.3415 19.2246 14.6411 18.5669C13.6759 17.653 12.574 16.1838 12.9754 14.4498Z" stroke="#A6A29F" stroke-width="1.5"/>
<path d="M10.3532 4.5415H12.6424C14.2226 4.5415 14.9572 6.49755 13.7699 7.53963L6.94509 13.5103C5.7578 14.5438 6.49239 16.4998 8.06405 16.4998H10.3532" stroke="#A6A29F" stroke-width="1.5" stroke-linecap="round" stroke-linejoin="round"/>
<path d="M4.78896 4.96859H4.79883" stroke="#A6A29F" stroke-width="2" stroke-linecap="round" stroke-linejoin="round"/>
<path d="M15.8934 15.2186H15.9033" stroke="#A6A29F" stroke-width="2" stroke-linecap="round" stroke-linejoin="round"/>
</svg>
