<svg width="21" height="22" viewBox="0 0 21 22" fill="none" xmlns="http://www.w3.org/2000/svg">
<path d="M3.77314 14.1857L7.64251 18.0551C9.23126 19.6438 11.8108 19.6438 13.4081 18.0551L17.1579 14.3053C18.7467 12.7165 18.7467 10.1369 17.1579 8.53965L13.28 4.67881C12.4686 3.86736 11.3496 3.43173 10.205 3.49152L5.93418 3.69652C4.22585 3.7734 2.86772 5.13152 2.7823 6.83131L2.5773 11.1021C2.52605 12.2553 2.96168 13.3742 3.77314 14.1857Z" stroke="#A6A29F" stroke-width="1.5" stroke-linecap="round" stroke-linejoin="round"/>
<path d="M8.32585 11.3669C9.5052 11.3669 10.4613 10.4108 10.4613 9.23149C10.4613 8.05213 9.5052 7.09607 8.32585 7.09607C7.14649 7.09607 6.19043 8.05213 6.19043 9.23149C6.19043 10.4108 7.14649 11.3669 8.32585 11.3669Z" stroke="#A6A29F" stroke-width="1.5" stroke-linecap="round"/>
<path d="M11.3154 15.6377L14.7321 12.2211" stroke="#A6A29F" stroke-width="1.5" stroke-miterlimit="10" stroke-linecap="round" stroke-linejoin="round"/>
</svg>
