<svg width="21" height="21" viewBox="0 0 21 21" fill="none" xmlns="http://www.w3.org/2000/svg">
<path d="M18.4375 5.60792C15.5931 5.32604 12.7317 5.18083 9.87875 5.18083C8.1875 5.18083 6.49625 5.26625 4.805 5.43708L3.0625 5.60792" stroke="#EA1D2C" stroke-width="1.5" stroke-linecap="round" stroke-linejoin="round"/>
<path d="M7.76074 4.74521L7.94866 3.62625C8.08533 2.81479 8.18783 2.20834 9.63137 2.20834H11.8693C13.3128 2.20834 13.4239 2.84896 13.552 3.63479L13.7399 4.74521" stroke="#EA1D2C" stroke-width="1.5" stroke-linecap="round" stroke-linejoin="round"/>
<path d="M16.6015 8.30708L16.0463 16.9085C15.9523 18.2496 15.8755 19.2917 13.4923 19.2917H8.00858C5.62546 19.2917 5.54858 18.2496 5.45462 16.9085L4.89941 8.30708" stroke="#EA1D2C" stroke-width="1.5" stroke-linecap="round" stroke-linejoin="round"/>
<path d="M9.32324 14.5938H12.1676" stroke="#EA1D2C" stroke-width="1.5" stroke-linecap="round" stroke-linejoin="round"/>
<path d="M8.61426 11.1771H12.8851" stroke="#EA1D2C" stroke-width="1.5" stroke-linecap="round" stroke-linejoin="round"/>
</svg>
